<?xml version="1.0" encoding="UTF-8"?>
<svg id="Layer_2" data-name="Layer 2" xmlns="http://www.w3.org/2000/svg" viewBox="0 0 3334 3334">
  <defs>
    <style>
      .cls-1 {
        fill: #fff;
        stroke: #000;
        stroke-miterlimit: 10;
      }

      .cls-2 {
        fill-rule: evenodd;
      }
    </style>
  </defs>
  <g id="Layer_2-2" data-name="Layer 2">
    <rect class="cls-1" x="603" y="861.73" width="2038.95" height="1730.37"/>
    <path class="cls-2" d="M1667,0c920,0,1667,746,1667,1667s-746,1667-1667,1667S0,2588,0,1667,746,0,1667,0Zm900,1108c-66,30-137,49-212,58,76-46,135-118,162-204-71,42-151,73-234,90-68-72-163-116-270-116-204,0-369,165-369,369,0,29,3,57,9,84-307-16-579-162-761-386-33,56-50,120-50,186,0,128,65,241,164,307-61-2-117-19-167-46v5c0,179,127,328,296,362-31,8-64,13-97,13-24,0-47-2-70-7,47,147,183,253,345,257-127,99-285,158-459,158-30,0-59-2-88-5,164,105,358,166,566,166,679,0,1051-563,1051-1051,0-16,0-32-1-48,72-52,135-117,184-191l1-1Z"/>
  </g>
</svg>